<?xml version="1.0" encoding="utf-8"?>
<!-- Generator: Adobe Illustrator 23.0.1, SVG Export Plug-In . SVG Version: 6.00 Build 0)  -->
<svg version="1.1" id="Layer_1" xmlns="http://www.w3.org/2000/svg" xmlns:xlink="http://www.w3.org/1999/xlink" x="0px" y="0px"
	 viewBox="0 0 108 108" style="enable-background:new 0 0 108 108;" xml:space="preserve">
<path d="M54.39,0C24.26-0.21,0,24.83,0,54.96L0,67c0,1.1,0.9,2,2,2h32c1.1,0,2-0.9,2-2l0-12.54c0-9.96,7.89-18.38,17.85-18.46
	C63.91,35.92,72.08,44.09,72,54.16C71.92,64.11,63.49,72,53.54,72L41,72c-1.1,0-2,0.9-2,2v32c0,1.1,0.9,2,2,2h12.04
	c30.13,0,55.17-24.26,54.95-54.39C107.79,24.1,83.9,0.21,54.39,0z"/>
<circle cx="18" cy="90" r="18"/>
</svg>
