<svg version="1.1" id="Layer_1" xmlns="http://www.w3.org/2000/svg" x="0" y="0" viewBox="0 0 108 180" xml:space="preserve"><style>.st0{fill:#fff}</style><path class="st0" d="M13.7 85.7c8.7-8.7 19.6-14.2 31.5-16-5.5-3.1-9.2-9-9.2-15.7 0-9.9 8.1-18 18-18s18 8.1 18 18c0 6.7-3.7 12.6-9.2 15.7 13.1 2 24.8 8.6 33.4 18C103.6 78.5 108 66.8 108 54c0-29.8-24.2-54-54-54S0 24.2 0 54c0 12.7 4.4 24.4 11.8 33.7.6-.7 1.2-1.4 1.9-2z"/><path class="st0" d="M54 72C24.2 72 0 96.2 0 126s24.2 54 54 54 54-24.2 54-54-24.2-54-54-54zm0 72c-9.9 0-18-8.1-18-18s8.1-18 18-18 18 8.1 18 18-8.1 18-18 18z"/></svg>