<svg version="1.1" id="Layer_1" xmlns="http://www.w3.org/2000/svg" x="0" y="0" viewBox="0 0 108 180" xml:space="preserve"><style>.st0{fill:#fff}</style><path class="st0" d="M106 111H74c-1.1 0-2 .9-2 2v12.6c0 9.8-7.6 18.1-17.3 18.4-10.2.4-18.7-7.8-18.7-18v-13c0-1.1-.9-2-2-2H2c-1.1 0-2 .9-2 2v13c0 30.1 24.6 54.4 54.7 54 29.7-.4 53.3-25.1 53.3-54.8V113c0-1.1-.9-2-2-2zM90 72H54.4c-9.8 0-18.1-7.6-18.4-17.3V36h69.9c1.1 0 2-.9 2-2 0-18.1.1-16.7.1-32 0-1.1-.9-2-2-2H2C.9 0 0 .9 0 2v52c0 29.8 24.2 54 54 54h52c1.1 0 2-.9 2-2V90c0-9.9-8.1-18-18-18z"/></svg>