<svg version="1.1" id="Layer_1" xmlns="http://www.w3.org/2000/svg" x="0" y="0" viewBox="0 0 108 180" xml:space="preserve"><style>.st0{fill:#fff}</style><path class="st0" d="M53 72H41c-1.1 0-2 .9-2 2v32c0 1.1.9 2 2 2h12.5c10 0 18.4 7.9 18.5 17.8.1 10.1-8.1 18.2-18.2 18.2-10-.1-17.8-8.5-17.8-18.5V113c0-1.1-.9-2-2-2H2c-1.1 0-2 .9-2 2v12c0 30.1 24.3 55.2 54.4 55 29.5-.2 53.4-24.1 53.6-53.6.2-30.1-24.8-54.4-55-54.4z"/><path class="st0" d="M2 69h32c1.1 0 2-.9 2-2V54c0-9.9 8.1-18 18-18 10.2 0 18.4 8.4 18 18.7-.2 6.6-4.1 12.2-9.6 15.1 12.1 1.9 23.3 7.6 32.1 16.5.5.5 1 1.1 1.5 1.6 7.9-9.8 12.4-22.3 11.9-36-1-28-23.8-50.8-51.8-51.9C25.3-1.1 0 23.5 0 54v13c0 1.1.9 2 2 2z"/></svg>