<svg version="1.1" id="Layer_1" xmlns="http://www.w3.org/2000/svg" x="0" y="0" viewBox="0 0 108 180" xml:space="preserve"><style>.st0{fill:#fff}</style><path class="st0" d="M54.7 0C24.6-.4 0 23.9 0 54v13c0 1.1.9 2 2 2h32c1.1 0 2-.9 2-2V54c0-10.2 8.4-18.4 18.7-18 9.7.4 17.3 8.7 17.3 18.4V67c0 1.1.9 2 2 2h32c1.1 0 2-.9 2-2V54.8C108 25.1 84.4.4 54.7 0zM106 72H54C24.2 72 0 96.2 0 126v52c0 1.1.9 2 2 2h104c1.1 0 2-.9 2-2 0-15.2-.1-13.9-.1-32 0-1.1-.9-2-2-2H36v-18-.7c.3-9.8 8.7-17.3 18.4-17.3H106c1.1 0 2-.9 2-2V74c0-1.1-.9-2-2-2z"/></svg>